<svg style="background-color: black" width="100%" height="100%" viewBox="0 0 88 34" fill="none" xmlns="http://www.w3.org/2000/svg">
<g clip-path="url(#clip0_725_1611)">
<path d="M34.1306 8.62891H43.0978V10.8644H39.9182V19.3593H37.317V10.8644H34.1289V8.62891H34.1306Z" fill="white"></path>
<path d="M47.6159 19.3595H45.0078V8.62744H47.6159V19.3595Z" fill="white"></path>
<path d="M49.5293 19.3595V8.62744H51.7502L57.1745 15.1707V8.62744H59.7826V19.3595H57.5225L52.1391 12.8791V19.3595H49.531H49.5293Z" fill="white"></path>
<path d="M67.3699 8.47094C69.3366 8.47094 71.0799 9.53004 71.9925 10.8815L69.9865 12.3588C69.4952 11.6482 68.6628 10.9053 67.3699 10.9053C65.5703 10.9053 64.3643 12.2007 64.3643 13.9874C64.3643 15.7741 65.5618 17.0848 67.3699 17.0848C68.5827 17.0848 69.6215 16.5782 69.9541 15.5667H67.1157V13.3856H72.7208C72.7532 13.6933 72.7686 14.0656 72.7686 14.5076C72.7686 17.4078 70.3891 19.5175 67.3682 19.5175C64.1733 19.5175 61.6914 17.1307 61.6914 13.9857C61.6914 10.8407 64.1818 8.46924 67.3682 8.46924L67.3699 8.47094Z" fill="white"></path>
<path d="M77.2878 19.3595H74.6797V8.62744H77.2878V19.3595Z" fill="white"></path>
<path d="M81.1572 15.6294C81.7678 16.578 82.7742 17.1713 83.8216 17.1713C84.6693 17.1713 85.367 16.8313 85.367 16.3417C85.367 15.6549 84.4544 15.4492 83.1632 15.0616C81.2356 14.4853 79.4838 13.8682 79.4838 11.6718C79.4838 9.6964 81.4182 8.4707 83.3934 8.4707C85.3687 8.4707 86.6753 9.3802 87.6271 10.7623L85.6996 12.1767C85.2237 11.4967 84.4391 10.7538 83.3917 10.7538C82.6378 10.7538 82.1158 11.1091 82.1158 11.6225C82.1158 12.3331 82.9397 12.4606 84.1064 12.8482C86.5405 13.654 87.999 14.2949 87.999 16.255C87.999 18.4905 85.8105 19.519 83.7568 19.519C81.8224 19.519 80.0058 18.6656 79.1973 17.054L81.1555 15.6311L81.1572 15.6294Z" fill="white"></path>
<path d="M36.7633 23.2676L38.8648 31.2406L41.0857 23.4257H43.1633L45.3842 31.2406L47.4857 23.2676H50.1177L47.2162 33.9997H43.9019L42.1262 28.1211L40.3505 33.9997H37.0363L34.1348 23.2676H36.7667H36.7633Z" fill="white"></path>
<path d="M51.7598 23.2676H59.3947V25.4572H54.3679V27.4479H58.7687V29.629H54.3679V31.8186H59.4749V33.9997H51.7598V23.2676Z" fill="white"></path>
<path d="M61.1211 33.9997V23.2676H66.1565C68.1625 23.2676 69.5748 24.3505 69.5748 26.1287C69.5748 27.2031 69.0358 28.0259 68.0755 28.5699C69.3445 29.0442 69.875 29.9214 69.875 31.0672C69.875 32.6958 68.623 33.9997 66.513 33.9997H61.1211ZM65.7522 27.6383C66.4738 27.6383 66.8627 27.1011 66.8627 26.5401C66.8627 25.9791 66.4345 25.4419 65.6738 25.4419H63.7309V27.6383H65.7522ZM65.8546 31.8339C66.6085 31.8339 67.0435 31.2729 67.0435 30.7442C67.0435 30.1594 66.6153 29.6307 65.8546 29.6307H63.7292V31.8356H65.8546V31.8339Z" fill="white"></path>
<path d="M17.0576 25.5V34H8.52878L0 25.5V17H8.52878V25.5H17.0576Z" fill="white"></path>
<path d="M17.0576 8.5V17H8.52878L0 8.5V0H8.52878V8.5H17.0576Z" fill="#FF5620"></path>
<path d="M29.8511 29.75C29.8511 27.4028 27.9418 25.5 25.5867 25.5C23.2315 25.5 21.3223 27.4028 21.3223 29.75C21.3223 32.0972 23.2315 34 25.5867 34C27.9418 34 29.8511 32.0972 29.8511 29.75Z" fill="#FF5620"></path>
</g>
<defs>
<clipPath id="clip0_725_1611">
<rect width="88" height="34" fill="white"></rect>
</clipPath>
</defs>
</svg>